PathFileType	4	(X/Y/Z)	Patient5_TMGait_0pt45_1_left_13.trc.trc
DataRate	CameraRate	NumFrames	NumMarkers	Units	OrigDataRate	OrigDataStartFrame	OrigNumFrames
57.142857142857	57.142857142857	4	32	mm	57.142857142857	106	       141
Frame#	Time	R.ASIS			L.ASIS			Chest			R.Shoulder			Neck			L.Shoulder			L.Elbow			L.Wrist			R.Elbow			R.Wrist			L.Thigh.Superior			L.Thigh.Lateral			L.Thigh.Inferior			L.Patella			L.Shank.Superior			L.Shank.Lateral			L.Shank.Inferior			L.Heel			L.Midfoot.Lateral			L.Midfoot.Superior			L.Toe			R.Thigh.Superior			R.Thigh.Lateral			R.Thigh.Inferior			R.Patella			R.Shank.Superior			R.Shank.Lateral			R.Shank.Inferior			R.Heel			R.Midfoot.Lateral			R.Midfoot.Superior			R.Toe			
		X1	Y1	Z1	X2	Y2	Z2	X3	Y3	Z3	X4	Y4	Z4	X5	Y5	Z5	X6	Y6	Z6	X7	Y7	Z7	X8	Y8	Z8	X9	Y9	Z9	X10	Y10	Z10	X11	Y11	Z11	X12	Y12	Z12	X13	Y13	Z13	X14	Y14	Z14	X15	Y15	Z15	X16	Y16	Z16	X17	Y17	Z17	X18	Y18	Z18	X19	Y19	Z19	X20	Y20	Z20	X21	Y21	Z21	X22	Y22	Z22	X23	Y23	Z23	X24	Y24	Z24	X25	Y25	Z25	X26	Y26	Z26	X27	Y27	Z27	X28	Y28	Z28	X29	Y29	Z29	X30	Y30	Z30	X31	Y31	Z31	X32	Y32	Z32	

106	22.017500000000	985.764613739028	968.733647597386	585.849263628963	959.392931256057	956.401186403736	347.997895956313	1048.627481021852	1429.527448570200	487.688993727435	958.331609118501	1485.543654057308	663.229950951433	921.687210339388	1553.676642214390	483.128072753600	973.400689292754	1503.271734417858	296.900005584885	875.677960401041	1194.973676766902	163.655248158103	966.538418126319	918.411025559798	173.497331762426	881.498402364468	1168.287238703541	807.856976820631	1090.838889672063	989.249137758660	715.260295865978	1004.428790921806	747.339754436864	313.529811183406	940.451027908099	672.693687591781	269.403569029384	1029.670343964995	620.183715397596	316.920034969451	1032.820722723375	474.961838720956	307.159831480422	929.733095992167	397.450065891288	332.014564389140	831.162769838612	388.330665304797	258.951105565732	827.828325553403	323.667038965910	344.624791605943	578.470841840298	240.060856230817	344.414032455266	621.713485079514	151.616607707643	294.210129905630	735.822992691474	130.855901676274	334.451327488331	779.154215849652	40.942074622803	353.258479332264	985.516102041316	735.069304885207	603.619276548530	894.575518883379	661.225395834068	656.451011261487	968.705295855646	607.223101260175	577.891554131517	964.010288762987	510.982433841094	603.428939597137	918.950760357980	416.848815678554	564.287479525191	849.802876114198	347.935408342511	644.872658392132	901.502031344143	278.929389794885	559.272890562525	778.897794644508	53.365895097411	519.332976843436	854.720992377030	24.920798610493	595.239908420902	961.514370883309	87.493932676418	573.383832394390	1065.245904203474	44.689833482264	577.421061883739	
107	22.035000000000	985.383726449747	967.381332175365	587.404510295896	958.009094510165	955.781453996816	350.502529996096	1050.412599567348	1427.944323315230	490.039568559076	961.685324231592	1483.221463019653	666.543201198985	923.646159786189	1552.401160189923	487.008624854964	973.826246966946	1502.850887524809	300.228755676576	875.078916005259	1194.192788708252	167.940328586079	967.221594597602	918.044670246355	176.300334174111	886.538901674558	1166.606836856603	812.989002474216	1094.857389660523	986.282458609129	720.766487014424	1010.695538344588	752.235477199753	315.677045114181	951.115641774496	675.209047348457	270.634424438832	1042.686379769606	626.757577974988	318.776244375397	1051.144718980609	480.342745176281	309.107522342647	946.632411896019	402.072689844259	333.462448647912	849.099179159833	394.139462727754	259.253640521045	842.769616321182	330.714105552020	345.463262046161	591.836507289452	254.987068261102	342.972869392263	632.928412523706	164.948756675747	293.058774924761	746.331301125486	139.907073931245	335.232848825691	786.113337834844	43.534460232317	353.657458483447	979.461513698165	733.160220769241	604.018948527933	886.951370738966	661.344562466844	657.929129311138	958.543854175808	605.742143076359	578.141545669630	952.318970243238	510.335628295667	603.507906860125	907.116443799196	417.685281115370	564.841444559448	839.242429209366	348.483919914117	645.833858407710	891.310116542070	279.755418211854	559.931580750877	770.745571129981	53.343674611609	519.664411584891	846.632343520508	24.814668040755	595.405331808788	953.374385498830	87.453279658165	573.499251182989	1057.170418879485	44.840612660986	577.457560565552	
108	22.052500000000	984.483184819353	966.077894287439	589.341347886534	956.735961661986	955.335464139593	353.023919282520	1052.341100173218	1426.418457412908	491.916633844845	965.115409578963	1481.004238576859	669.273684924382	925.811375503250	1551.192318684150	490.308301077421	974.509412600246	1502.539036424615	303.043476840759	874.732899822782	1193.500890507579	171.714331839206	968.249671085045	917.809149430017	178.925838503387	891.649119448504	1165.082989005152	817.580404705158	1098.910007668330	983.292926903841	725.982836930564	1016.325971105697	757.764991902817	318.593538703470	961.123990475317	678.630450588884	272.390041275619	1054.455073976033	634.156091993343	321.517405750815	1068.163084545680	486.754796800335	311.644293719328	963.008751977969	407.279151931903	335.425851056962	866.391810460307	399.691150082474	260.178760222958	857.969433462879	337.132184009197	346.758181801712	606.163750289630	264.614404401495	341.952403867349	647.398671710753	174.463846240829	292.225372046409	760.231626574414	148.054219200751	336.370227993755	798.864767602823	47.221496199161	354.366607393887	973.820487008329	731.477145960854	605.165248516593	879.906550529649	661.377511719318	659.547495357646	949.740989750665	604.459172686409	579.099204408069	942.127401305006	509.689423150363	604.256628315416	896.769285224069	418.375217596836	565.755162152960	829.549037455077	349.026426485191	646.869119404980	881.938487521868	280.438186508553	560.802681025496	762.590904998300	53.384197026550	519.998854088808	838.566420118328	24.739953360327	595.566927465073	945.271772160578	87.435646187172	573.686783405267	1049.101640390632	44.972993510715	577.525846507488	
109	22.070000000000	983.088273423128	964.891764151771	591.751139834024	955.618841046804	955.115133532802	355.515068321714	1054.482209040897	1424.961015901372	493.416374001334	968.652339426186	1479.030684484163	671.448711758674	928.263904069529	1550.114725456639	493.011481219284	975.665276831364	1502.286252333043	305.366132924616	874.783150466234	1192.957339067801	174.864799530295	969.603889297216	917.724748919418	181.409363075955	896.671294898992	1163.842925345677	821.566823793514	1102.956619089244	980.573438675112	730.781368001788	1021.208544244558	763.728298814651	322.010025699539	970.249776176054	682.810927606731	274.506841830970	1064.807952726743	642.107788342685	324.884143325304	1083.714518969726	494.031095358198	314.569572611705	978.826768487769	412.744522215228	337.735790206798	882.958096066472	404.530530845644	261.646929411004	873.548839846296	342.371550219529	348.420649610732	621.669209101698	268.022515941604	341.478470633691	665.290834081459	179.280668409260	291.727069048266	777.848908249621	154.443935192229	337.651549707097	817.954187914722	51.544717708064	355.091736203254	968.861408789484	730.079423573256	606.919155743449	873.756954931254	661.312528073174	661.195402956511	942.605350859332	603.356283966247	580.583807100957	933.744555228460	509.026516587427	605.497936640211	888.206327735838	418.819069674745	566.896083686460	821.015248073926	349.489740543591	647.879187876474	873.574165008575	280.877427375094	561.770134992766	754.456958038676	53.458019446628	520.294674109590	830.536927354948	24.696777181032	595.716509308642	937.219990695304	87.433058581217	573.920494814858	1041.063728047574	45.065257581559	577.615146993378	
